<svg xmlns="http://www.w3.org/2000/svg" viewBox="588 -27 428 428">
  <rect x="588" y="-27" width="428" height="428" rx="78" fill="#264726"/>
  <g fill="#FFDFA7">
    <path d="M829.44,309.2l-23.85-38.66c8.09-13.3,13.77-22.12,21.93-35.55c9.82,16.27,14.19,22.91,23.95,39.08"/>
    <path d="M838.65,326.53l22.41-36.57c19.66,32.57,26.08,42.99,45.87,75.74H648.75c0.93-1.62,1.62-2.91,2.37-4.18c24.5-40.39,49.03-80.78,73.52-121.19c20.82-34.34,41.62-68.68,62.34-103.09c1.41-2.37,2.89-3.29,5.75-3.25c12.54,0.16,25.07,0.11,37.62,0.04c2.16-0.02,3.46,0.57,4.62,2.48c22.71,37.62,45.5,75.21,68.27,112.8c5.84,9.64,11.66,19.3,17.5,28.95c0.5,0.86,1.88,2.92,2.58,3.99c0-2.11,0.01-4.03,0.03-5.26c0.02-15.73-0.02-31.45-0.02-47.18c-0.02-12.59,0-25.16-0.05-37.75c0-2.05,0.3-3.91,1.43-5.75c6.8-11.14,13.5-22.32,20.25-33.5c0.23-0.39,0.55-0.75,1.18-1.57c7.55,12.43,14.89,24.52,22.32,36.75c-1.84,3.05-3.59,6.12-5.52,9.09c-1.21,1.89-1.75,3.8-1.75,6.04v162.76c-9.64,0.02-19.3,0.04-28.96,0.05c-3.07,0.02-4.29-1.39-5.57-3.55c-21.93-36.34-43.89-72.64-65.85-108.96c-15.59-25.8-31.16-51.61-46.77-77.41c-0.7-1.18-1.5-2.3-2.61-3.96c-30.07,49.71-63.17,104.67-93.31,154.49h119.66H838.65z"/>
    <path d="M869.66,166c6.1-10.08,12.07-20.05,18.16-29.94c1.14-1.86,1.46-3.29,0.2-5.34c-9-14.62-17.84-29.33-26.74-44c-0.53-0.87-1.18-1.68-2.19-3.09c-6.38,10.47-12.52,20.56-18.6,30.54c-15.49,0-30.7,0-46.61,0c21.81-36.13,43.38-71.86,65.22-108.02c0.86,1.25,1.47,2.05,1.98,2.9c24.51,40.57,48.98,81.15,73.56,121.68c1.44,2.38,1.39,4.06-0.04,6.39c-9.33,15.19-18.48,30.49-27.76,45.7c-1.22,1.99-1.79,3.97-1.77,6.29c0.09,10.1,0.04,20.2,0.04,30.29c0,1.29,0,2.58,0,4.05C902.7,221.4,875,176.42,869.66,166z"/>
  </g>
</svg>
