<?xml version="1.0" encoding="utf-8"?>
<!-- Generator: Adobe Illustrator 24.3.0, SVG Export Plug-In . SVG Version: 6.00 Build 0)  -->
<svg version="1.1" id="Layer_1" xmlns="http://www.w3.org/2000/svg" xmlns:xlink="http://www.w3.org/1999/xlink" x="0px" y="0px"
	 viewBox="0 0 983.21 385.04" style="enable-background:new 0 0 983.21 385.04;" xml:space="preserve">
<style type="text/css">
	.st0{fill:#264726;}
	.st1{display:none;fill-rule:evenodd;clip-rule:evenodd;fill:#26301D;}
	.st2{fill:#FFDFA7;}
	.st3{opacity:0.15;clip-path:url(#SVGID_2_);}
	.st4{opacity:0.15;clip-path:url(#SVGID_4_);}
	.st5{fill:#264726;stroke:#FFDFA7;stroke-width:0.25;stroke-miterlimit:10;}
	.st6{opacity:0.13;clip-path:url(#SVGID_6_);}
	.st7{opacity:0.13;clip-path:url(#SVGID_8_);}
	.st8{opacity:0.13;clip-path:url(#SVGID_10_);}
</style>
<g id="BG">
</g>
<g>
	<path class="st2" d="M12.27,212.22c0-9.71,2-20.7,6.14-33.26l17.99,4.85c-2.57,8.14-4,14.99-4,21.84
		c0.14,14.13,7.71,21.13,22.56,21.13c14.42,0,21.7-7.57,21.56-23.56v-53.25l22.27-2.71v59.1c0,27.41-15.28,43.97-43.83,43.97
		C27.12,250.34,12.27,237.77,12.27,212.22z M36.97,147.98l14.85-14.7l14.85,14.7l-14.7,14.7L36.97,147.98z"/>
	<path class="st2" d="M115.77,118l22.27-2.57v104.22h-22.27V118z"/>
	<path class="st2" d="M229.41,197.52v20.56c0,0.86-0.57,1.57-1.43,1.57h-7c-2,22.27-25.27,30.69-58.53,30.69l-2.28-18.13
		c23.84,0,35.69-3.43,38.26-12.56h-11.99c-20.27,0-33.83-14.13-33.83-35.55c0-21.13,15.42-36.83,35.12-36.83
		c19.13,0,33.41,13.56,33.41,35.69v13.13h6.85C228.84,196.09,229.41,196.66,229.41,197.52z M188.44,197.37
		c3.28,0,6.85-0.29,10.56-0.57v-12.28c0-9.28-5.28-14.7-12.99-14.7c-7.14,0-13.42,5.28-13.42,13.56
		C172.59,192.8,179.59,197.37,188.44,197.37z"/>
	<path class="st2" d="M257.1,197.52v20.56c0,0.86-0.57,1.57-1.43,1.57h-27.7c-0.86,0-1.43-0.71-1.43-1.57v-20.56
		c0-0.86,0.57-1.43,1.43-1.43h27.7C256.53,196.09,257.1,196.66,257.1,197.52z"/>
	<path class="st2" d="M284.8,197.52v20.56c0,0.86-0.57,1.57-1.43,1.57h-27.7c-0.86,0-1.43-0.71-1.43-1.57v-20.56
		c0-0.86,0.57-1.43,1.43-1.43h27.7C284.23,196.09,284.8,196.66,284.8,197.52z"/>
	<path class="st2" d="M312.49,197.52v20.56c0,0.86-0.57,1.57-1.43,1.57h-27.7c-0.86,0-1.43-0.71-1.43-1.57v-20.56
		c0-0.86,0.57-1.43,1.43-1.43h27.7C311.92,196.09,312.49,196.66,312.49,197.52z"/>
	<path class="st2" d="M340.18,197.52v20.56c0,0.86-0.57,1.57-1.43,1.57h-27.7c-0.86,0-1.43-0.71-1.43-1.57v-20.56
		c0-0.86,0.57-1.43,1.43-1.43h27.7C339.61,196.09,340.18,196.66,340.18,197.52z"/>
	<path class="st2" d="M367.88,197.52v20.56c0,0.86-0.57,1.57-1.43,1.57h-27.7c-0.86,0-1.43-0.71-1.43-1.57v-20.56
		c0-0.86,0.57-1.43,1.43-1.43h27.7C367.31,196.09,367.88,196.66,367.88,197.52z"/>
	<path class="st2" d="M395.57,197.52v20.56c0,0.86-0.57,1.57-1.43,1.57h-27.7c-0.86,0-1.43-0.71-1.43-1.57v-20.56
		c0-0.86,0.57-1.43,1.43-1.43h27.7C395,196.09,395.57,196.66,395.57,197.52z"/>
	<path class="st2" d="M423.26,197.52v20.56c0,0.86-0.57,1.57-1.43,1.57h-27.7c-0.86,0-1.43-0.71-1.43-1.57v-20.56
		c0-0.86,0.57-1.43,1.43-1.43h27.7C422.69,196.09,423.26,196.66,423.26,197.52z"/>
	<path class="st2" d="M558.46,197.52v20.56c0,0.86-0.57,1.57-1.43,1.57c-8.71,0-16.28-3.43-22.27-9.57
		c-5.71,6.28-14.99,9.57-27.41,9.57h-52.11h-22.41h-10.99c-0.86,0-1.43-0.71-1.43-1.57v-20.56c0.29-0.86,0.86-1.43,1.43-1.43h10.99
		V118l22.41-2.57v44.54c26.7-12.71,39.97-16.85,53.96-16.85c19.56,0,33.26,13.56,32.83,33.69l-0.29,12.85v2
		c4.43,2.86,9.14,4.43,15.28,4.43C557.89,196.09,558.46,196.66,558.46,197.52z M519.63,178.96c0-7.71-6.28-12.99-15.42-12.99
		c-11.71,0-17.99,2-48.97,11.99v18.13h52.39c7.57,0,11.99-4.28,11.99-11.85V178.96z"/>
	<path class="st2" d="M555.6,218.07l0.29-20.56c0-0.86,0.57-1.43,1.43-1.43c8,0,11.85-4.43,11.85-14.56l-0.14-31.55l22.27-2.71v42.4
		c0,19.7-11.28,29.98-34.26,29.98C556.17,219.64,555.6,218.93,555.6,218.07z M564.74,122.14l14.85-14.7l14.85,14.7l-14.7,14.7
		L564.74,122.14z"/>
</g>
<g>
	<path class="st2" d="M44.75,369.4H25.12v-84.44h21.27l37.88,51.16v-50.04l19.63-2.24v85.56H82.63l-37.88-52.15V369.4z"/>
	<path class="st2" d="M175.75,353.75h-35.11l-5.79,15.65h-22.4l33.1-83.94l25.92-2.23l32.09,85.06l-21.9,2.23L175.75,353.75z
		 M169.58,336.37l-11.2-31.29l-11.45,31.29H169.58z"/>
	<path class="st2" d="M229.98,302.35h-25.29v-17.38h72.48l-2.26,17.38h-23.03v67.05h-21.9V302.35z"/>
	<path class="st2" d="M382.75,370.02h-25.04l-14.6-50.54l-13.97,50.54H305.1l-25.04-83.94l20.76-2.24l17.37,61.72l15.48-60.6h19.88
		l16.74,60.6l16.23-60.6h20.76L382.75,370.02z"/>
	<path class="st2" d="M471.59,353.75h-35.11l-5.79,15.65h-22.4l33.1-83.94l25.92-2.23l32.09,85.06l-21.9,2.23L471.59,353.75z
		 M465.42,336.37l-11.2-31.29l-11.45,31.29H465.42z"/>
	<path class="st2" d="M527.58,369.4h-19.63v-84.44h21.27l37.88,51.16v-50.04l19.63-2.24v85.56h-21.27l-37.88-52.15V369.4z"/>
</g>
<g>
	<path class="st2" d="M829.44,309.2l-23.85-38.66c8.09-13.3,13.77-22.12,21.93-35.55c9.82,16.27,14.19,22.91,23.95,39.08"/>
	<path class="st2" d="M838.65,326.53l22.41-36.57c19.66,32.57,26.08,42.99,45.87,75.74H648.75c0.93-1.62,1.62-2.91,2.37-4.18
		c24.5-40.39,49.03-80.78,73.52-121.19c20.82-34.34,41.62-68.68,62.34-103.09c1.41-2.37,2.89-3.29,5.75-3.25
		c12.54,0.16,25.07,0.11,37.62,0.04c2.16-0.02,3.46,0.57,4.62,2.48c22.71,37.62,45.5,75.21,68.27,112.8
		c5.84,9.64,11.66,19.3,17.5,28.95c0.5,0.86,1.88,2.92,2.58,3.99c0-2.11,0.01-4.03,0.03-5.26c0.02-15.73-0.02-31.45-0.02-47.18
		c-0.02-12.59,0-25.16-0.05-37.75c0-2.05,0.3-3.91,1.43-5.75c6.8-11.14,13.5-22.32,20.25-33.5c0.23-0.39,0.55-0.75,1.18-1.57
		c7.55,12.43,14.89,24.52,22.32,36.75c-1.84,3.05-3.59,6.12-5.52,9.09c-1.21,1.89-1.75,3.8-1.75,6.04v162.76
		c-9.64,0.02-19.3,0.04-28.96,0.05c-3.07,0.02-4.29-1.39-5.57-3.55c-21.93-36.34-43.89-72.64-65.85-108.96
		c-15.59-25.8-31.16-51.61-46.77-77.41c-0.7-1.18-1.5-2.3-2.61-3.96c-30.07,49.71-63.17,104.67-93.31,154.49h119.66H838.65z"/>
	<path class="st2" d="M869.66,166c6.1-10.08,12.07-20.05,18.16-29.94c1.14-1.86,1.46-3.29,0.2-5.34c-9-14.62-17.84-29.33-26.74-44
		c-0.53-0.87-1.18-1.68-2.19-3.09c-6.38,10.47-12.52,20.56-18.6,30.54c-15.49,0-30.7,0-46.61,0
		c21.81-36.13,43.38-71.86,65.22-108.02c0.86,1.25,1.47,2.05,1.98,2.9c24.51,40.57,48.98,81.15,73.56,121.68
		c1.44,2.38,1.39,4.06-0.04,6.39c-9.33,15.19-18.48,30.49-27.76,45.7c-1.22,1.99-1.79,3.97-1.77,6.29
		c0.09,10.1,0.04,20.2,0.04,30.29c0,1.29,0,2.58,0,4.05C902.7,221.4,875,176.42,869.66,166z"/>
</g>
</svg>
