<?xml version="1.0" encoding="utf-8"?>
<!-- Generator: Adobe Illustrator 24.3.0, SVG Export Plug-In . SVG Version: 6.00 Build 0)  -->
<svg version="1.1" id="Layer_1" xmlns="http://www.w3.org/2000/svg" xmlns:xlink="http://www.w3.org/1999/xlink" x="0px" y="0px"
	 viewBox="0 0 546.26 164.35" style="enable-background:new 0 0 546.26 164.35;" xml:space="preserve">
<style type="text/css">
	.st0{fill:#FFDFA7;}
	.st1{fill:#FFDFA7;stroke:#BB5419;stroke-miterlimit:10;}
</style>
<path class="st0" d="M486.29,127.6l-9.46-15.33c3.21-5.28,5.46-8.78,8.7-14.1c3.9,6.45,5.63,9.09,9.5,15.5"/>
<path class="st0" d="M489.94,134.48l8.89-14.51c7.8,12.92,10.35,17.05,18.19,30.04H414.61c0.37-0.64,0.64-1.15,0.94-1.66
	c9.72-16.02,19.45-32.04,29.16-48.07c8.26-13.62,16.51-27.24,24.73-40.89c0.56-0.94,1.15-1.3,2.28-1.29
	c4.97,0.06,9.94,0.04,14.92,0.01c0.86-0.01,1.37,0.23,1.83,0.98c9.01,14.92,18.05,29.83,27.08,44.74c2.32,3.82,4.63,7.66,6.94,11.48
	c0.2,0.34,0.75,1.16,1.02,1.58c0-0.84,0-1.6,0.01-2.09c0.01-6.24-0.01-12.47-0.01-18.71c-0.01-4.99,0-9.98-0.02-14.97
	c0-0.81,0.12-1.55,0.57-2.28c2.7-4.42,5.35-8.85,8.03-13.29c0.09-0.16,0.22-0.3,0.47-0.62c3,4.93,5.91,9.73,8.85,14.58
	c-0.73,1.21-1.42,2.43-2.19,3.61c-0.48,0.75-0.69,1.51-0.69,2.39v64.56c-3.82,0.01-7.66,0.01-11.49,0.02
	c-1.22,0.01-1.7-0.55-2.21-1.41c-8.7-14.41-17.41-28.81-26.12-43.22c-6.18-10.24-12.36-20.47-18.55-30.71
	c-0.28-0.47-0.59-0.91-1.03-1.57c-11.93,19.72-25.06,41.52-37.01,61.28h47.46H489.94z"/>
<path class="st0" d="M502.24,70.8c2.42-4,4.79-7.95,7.2-11.88c0.45-0.74,0.58-1.31,0.08-2.12c-3.57-5.8-7.08-11.63-10.61-17.45
	c-0.21-0.35-0.47-0.66-0.87-1.22c-2.53,4.15-4.96,8.15-7.38,12.12c-6.15,0-12.18,0-18.49,0c8.65-14.33,17.21-28.51,25.87-42.85
	c0.34,0.5,0.58,0.81,0.79,1.15c9.72,16.09,19.43,32.19,29.18,48.27c0.57,0.94,0.55,1.61-0.02,2.53c-3.7,6.03-7.33,12.09-11.01,18.13
	c-0.48,0.79-0.71,1.57-0.7,2.5c0.04,4.01,0.02,8.01,0.02,12.02c0,0.51,0,1.02,0,1.61C515.35,92.78,504.36,74.93,502.24,70.8z"/>
<g>
	<path class="st0" d="M5.99,86.73L5.94,61.06l8.01-0.92L14,83.85c0,3.65,1.33,5.29,4.26,5.29c0.31,0,0.51,0.21,0.51,0.51l0.05,7.39
		c0,0.31-0.21,0.56-0.51,0.56C10.04,97.61,5.99,93.97,5.99,86.73z"/>
	<path class="st0" d="M28.78,89.65v7.39c0,0.31-0.21,0.56-0.51,0.56h-9.96c-0.31,0-0.51-0.26-0.51-0.56v-7.39
		c0-0.31,0.21-0.51,0.51-0.51h9.96C28.58,89.14,28.78,89.35,28.78,89.65z"/>
	<path class="st0" d="M38.74,89.65v7.39c0,0.31-0.21,0.56-0.51,0.56h-9.96c-0.31,0-0.51-0.26-0.51-0.56v-7.39
		c0-0.31,0.21-0.51,0.51-0.51h9.96C38.54,89.14,38.74,89.35,38.74,89.65z"/>
	<path class="st0" d="M67.24,89.65v7.39c0,0.31-0.21,0.56-0.51,0.56h-1.18c-0.36,7.29-5.44,11.3-12.94,11.3
		c-6.37,0-11.09-4-12.68-11.35c-0.72,0.05-1.44,0.05-2.1,0.05c-0.36,0-0.51-0.26-0.51-0.56v-7.39c0-0.31,0.21-0.51,0.51-0.51h1.64
		c0.82-7.86,5.13-16.28,11.5-22.08h6.88c4.11,5.19,6.78,11.4,6.78,15.76c0,2.46-0.72,4.52-2.05,6.32h4.16
		C67.03,89.14,67.24,89.35,67.24,89.65z M46.6,88.83c6.98-0.56,10.01-2.21,10.01-5.85c0-2.72-1.23-6.16-3.39-9.45
		C49.22,78.62,47.11,84.52,46.6,88.83z M58.66,97.61h-2.52l-0.98-3.08c-2.41,1.03-5.13,1.8-7.96,2.26c0.98,2.93,2.93,4.42,5.7,4.42
		C56.25,101.21,58.25,99.62,58.66,97.61z"/>
	<path class="st0" d="M65.7,97.05l0.1-7.39c0-0.31,0.21-0.51,0.51-0.51c2.88,0,4.26-1.59,4.26-5.24l-0.05-11.35l8.01-0.98v15.25
		c0,7.09-4.06,10.78-12.32,10.78C65.9,97.61,65.7,97.36,65.7,97.05z M67.03,105.62l5.34-5.29l5.34,5.29l-5.29,5.29L67.03,105.62z"/>
	<path class="st0" d="M95.73,59.67l-0.92,4.31H82.59v-4.31h2.16c-0.36-0.77-0.56-1.59-0.56-2.52c0-2.67,2.16-4.67,5.08-4.67
		c1.69,0,3.49,0.51,4.62,1.03v3.9c-1.33-0.51-2.46-0.77-3.29-0.77c-1.13,0-1.95,0.56-1.95,1.44c0,0.62,0.21,1.13,0.56,1.59H95.73z
		 M85,67.32l8.01-0.92v31.22H85V67.32z"/>
	<path class="st0" d="M108.67,94.94c0-3.49,0.72-7.45,2.21-11.96l6.47,1.75c-0.92,2.93-1.44,5.39-1.44,7.86
		c0.05,5.08,2.77,7.6,8.11,7.6c5.19,0,7.8-2.72,7.75-8.47V72.56l8.01-0.98v21.26c0,9.86-5.49,15.81-15.76,15.81
		C114.01,108.65,108.67,104.13,108.67,94.94z M117.55,71.84l5.34-5.29l5.34,5.29l-5.29,5.29L117.55,71.84z"/>
	<path class="st0" d="M145.89,61.06l8.01-0.92v37.48h-8.01V61.06z"/>
	<path class="st0" d="M186.76,89.65v7.39c0,0.31-0.21,0.56-0.51,0.56h-2.52c-0.72,8.01-9.09,11.04-21.05,11.04l-0.82-6.52
		c8.58,0,12.84-1.23,13.76-4.52h-4.31c-7.29,0-12.17-5.08-12.17-12.79c0-7.6,5.55-13.25,12.63-13.25c6.88,0,12.01,4.88,12.01,12.84
		v4.72h2.46C186.56,89.14,186.76,89.35,186.76,89.65z M172.03,89.6c1.18,0,2.46-0.1,3.8-0.21v-4.42c0-3.34-1.9-5.29-4.67-5.29
		c-2.57,0-4.83,1.9-4.83,4.88C166.33,87.96,168.84,89.6,172.03,89.6z"/>
	<path class="st0" d="M235.38,89.65v7.39c0,0.31-0.21,0.56-0.51,0.56c-3.13,0-5.85-1.23-8.01-3.44c-2.05,2.26-5.39,3.44-9.86,3.44
		h-18.74h-8.06h-3.95c-0.31,0-0.51-0.26-0.51-0.56v-7.39c0.1-0.31,0.31-0.51,0.51-0.51h3.95V61.06l8.06-0.92v16.02
		c9.6-4.57,14.38-6.06,19.41-6.06c7.03,0,11.96,4.88,11.81,12.12l-0.1,4.62v0.72c1.59,1.03,3.29,1.59,5.49,1.59
		C235.18,89.14,235.38,89.35,235.38,89.65z M221.42,82.98c0-2.77-2.26-4.67-5.55-4.67c-4.21,0-6.47,0.72-17.61,4.31v6.52h18.84
		c2.72,0,4.31-1.54,4.31-4.26V82.98z"/>
	<path class="st0" d="M234.35,97.05l0.1-7.39c0-0.31,0.21-0.51,0.51-0.51c2.88,0,4.26-1.59,4.26-5.24l-0.05-11.35l8.01-0.98v15.25
		c0,7.09-4.06,10.78-12.32,10.78C234.56,97.61,234.35,97.36,234.35,97.05z M237.64,62.54l5.34-5.29l5.34,5.29l-5.29,5.29
		L237.64,62.54z"/>
	<path class="st0" d="M290.73,89.65v7.39c0,0.31-0.21,0.56-0.51,0.56c-3.23,0-5.7-0.62-7.5-1.9c-3.08,1.59-5.8,2.36-8.63,2.36
		c-7.29,0-12.48-5.65-12.48-12.94s5.19-13.5,12.48-13.5c1.69,0,3.34,0.36,5.19,0.98v-2.77l8.01-0.98l0.05,17.1
		c0,2.26,1.03,3.18,2.88,3.18C290.52,89.14,290.73,89.35,290.73,89.65z M270.45,68.09l-5.34-5.34l5.29-5.29l4.06,3.95l4-3.95
		l5.34,5.29l-5.24,5.34l-4.11-4L270.45,68.09z M279.43,89.3c-0.1-0.67-0.1-1.44-0.1-2.21l-0.05-6.62c-1.64-0.56-3.18-0.92-4.78-0.92
		c-3.29,0-5.44,2.26-5.44,5.44c0,2.88,2.11,5.08,5.03,5.19C275.99,90.22,277.84,89.91,279.43,89.3z"/>
	<path class="st0" d="M323.18,89.65v7.39c0,0.31-0.21,0.56-0.51,0.56h-0.87c-3.95,0-6.88-1.95-8.11-5.24
		c-7.91,3.85-14.22,5.24-23.41,5.24c-0.31,0-0.57-0.26-0.57-0.56v-7.39c0-0.31,0.26-0.51,0.57-0.51c9.7,0,15.04-0.87,21.21-3.23
		c-6.88-4.67-9.6-6.06-13.04-6.06c-1.64,0-2.82,0.31-4.93,0.72l-1.49-7.09c2.88-1.23,5.19-1.75,7.39-1.75
		c4.52,0,8.42,1.9,20.28,10.17l-1.28,6.68c0.82,0.36,1.95,0.51,3.44,0.56h0.82C322.97,89.14,323.18,89.35,323.18,89.65z"/>
	<path class="st0" d="M340.89,89.65v7.39c0,0.31-0.21,0.56-0.51,0.56c-3.03,0-5.75-1.18-7.86-3.29c-2.05,2.16-5.34,3.29-9.86,3.29
		c-0.31,0-0.51-0.26-0.51-0.56l0.1-7.39c0-0.31,0.21-0.51,0.51-0.51c2.88,0,4.26-1.59,4.26-5.24l-0.05-6.16l8.01-0.92v10.01v0.82
		c1.54,0.92,3.23,1.49,5.39,1.49C340.68,89.14,340.89,89.35,340.89,89.65z M331.13,73.74l-5.39-5.29l5.34-5.29l5.34,5.29
		L331.13,73.74z"/>
	<path class="st0" d="M369.85,81.9l-1.59,8.16c-10.17,5.65-17,7.55-27.83,7.55c-0.31,0-0.57-0.26-0.57-0.56v-7.39
		c0-0.31,0.26-0.51,0.57-0.51c9.7,0,15.04-0.87,21.21-3.23c-6.88-4.67-9.6-6.06-13.04-6.06c-1.64,0-2.82,0.31-4.93,0.72l-1.49-7.09
		c2.88-1.23,5.19-1.75,7.39-1.75C354.08,71.73,357.99,73.63,369.85,81.9z M357.06,99.56l5.34,5.29l-5.29,5.29l-5.39-5.29
		L357.06,99.56z"/>
	<path class="st0" d="M385.4,59.67l-0.92,4.31h-12.22v-4.31h2.16c-0.36-0.77-0.57-1.59-0.57-2.52c0-2.67,2.16-4.67,5.08-4.67
		c1.69,0,3.49,0.51,4.62,1.03v3.9c-1.33-0.51-2.46-0.77-3.29-0.77c-1.13,0-1.95,0.56-1.95,1.44c0,0.62,0.21,1.13,0.56,1.59H385.4z
		 M374.67,67.32l8.01-0.92v31.22h-8.01V67.32z"/>
</g>
<g>
	<path class="st0" d="M15.6,156.43c-2.91,0-5.18-0.72-6.78-2.15c-1.61-1.44-2.41-3.57-2.41-6.39c0-2.26,0.48-4.85,1.44-7.76
		l2.87,0.78c-0.72,2.2-1.08,4.2-1.08,6c0.02,1.91,0.55,3.35,1.6,4.32c1.04,0.97,2.53,1.45,4.47,1.45c2,0,3.49-0.55,4.47-1.66
		c0.98-1.11,1.47-2.83,1.47-5.15v-12.26l3.52-0.49v13.18c0,3.15-0.79,5.63-2.38,7.44C21.19,155.52,18.8,156.43,15.6,156.43z
		 M15.5,136.33l-2.94-2.87l2.87-2.84l2.94,2.84L15.5,136.33z"/>
	<path class="st0" d="M29.92,149.41v-23.32l3.56-0.49v23.81H29.92z"/>
	<path class="st0" d="M53.89,145.66c0.22,0,0.33,0.1,0.33,0.29v3.13c0,0.22-0.11,0.33-0.33,0.33h-1.83
		c-0.39,4.68-4.58,7.01-12.56,7.01l-0.39-2.97c2.96,0,5.2-0.32,6.74-0.96c1.53-0.64,2.42-1.67,2.66-3.08h-3.52
		c-2.31,0-4.16-0.72-5.56-2.15c-1.4-1.44-2.1-3.35-2.1-5.74c0-2.35,0.73-4.28,2.19-5.81c1.46-1.52,3.29-2.28,5.51-2.28
		c2.09,0,3.79,0.7,5.1,2.09c1.32,1.39,1.97,3.23,1.97,5.51v4.63H53.89z M40.55,141.39c0,1.44,0.44,2.53,1.3,3.29
		s2.04,1.14,3.52,1.14c0.35,0,0.93-0.02,1.75-0.05c0.82-0.03,1.3-0.05,1.45-0.05v-4.44c0-1.28-0.36-2.31-1.08-3.08
		c-0.72-0.77-1.65-1.16-2.81-1.16c-1.17,0-2.16,0.4-2.95,1.21C40.95,139.06,40.55,140.11,40.55,141.39z"/>
	<path class="st0" d="M60.22,145.66c0.22,0,0.33,0.1,0.33,0.29v3.13c0,0.22-0.11,0.33-0.33,0.33h-6.33c-0.22,0-0.33-0.11-0.33-0.33
		v-3.13c0-0.2,0.11-0.29,0.33-0.29H60.22z"/>
	<path class="st0" d="M66.55,145.66c0.22,0,0.33,0.1,0.33,0.29v3.13c0,0.22-0.11,0.33-0.33,0.33h-6.33c-0.22,0-0.33-0.11-0.33-0.33
		v-3.13c0-0.2,0.11-0.29,0.33-0.29H66.55z"/>
	<path class="st0" d="M72.88,145.66c0.22,0,0.33,0.1,0.33,0.29v3.13c0,0.22-0.11,0.33-0.33,0.33h-6.33c-0.22,0-0.33-0.11-0.33-0.33
		v-3.13c0-0.2,0.11-0.29,0.33-0.29H72.88z"/>
	<path class="st0" d="M83.84,145.66c0.22,0,0.33,0.1,0.33,0.29v3.13c0,0.22-0.11,0.33-0.33,0.33c-1.87,0-3.58-0.71-5.12-2.12
		c-1.22,1.41-3.16,2.12-5.84,2.12c-0.22,0-0.33-0.11-0.33-0.33l0.03-3.13c0-0.2,0.11-0.29,0.33-0.29c2.44,0,3.65-1.27,3.65-3.82
		l-0.03-4.83l3.56-0.49v6.43c0,0.57-0.04,1.07-0.13,1.5C81.15,145.26,82.44,145.66,83.84,145.66z M81.19,131.57l-2.87,2.87
		l-2.94-2.87l2.87-2.84L81.19,131.57z"/>
	<path class="st0" d="M90.13,145.53c3.22-0.13,6.84-0.54,10.86-1.24l-0.75,3.75c-4.89,0.91-10.36,1.37-16.41,1.37
		c-0.22,0-0.33-0.11-0.33-0.33v-3.13c0-0.2,0.11-0.29,0.33-0.29c1.28,0,2.22-0.01,2.81-0.03c-0.94-1.74-1.4-3.48-1.4-5.22
		c0-2.04,0.71-3.72,2.14-5.02c1.42-1.3,3.22-1.96,5.4-1.96c1.46,0,3.48,0.44,6.07,1.3l-0.98,3.03c-1.98-0.57-3.48-0.85-4.5-0.85
		c-1.39,0-2.52,0.38-3.39,1.14c-0.87,0.76-1.3,1.77-1.3,3.03C88.66,142.53,89.15,144.01,90.13,145.53z"/>
	<path class="st0" d="M128.23,145.66c0.22,0,0.33,0.1,0.33,0.29v3.13c0,0.22-0.11,0.33-0.33,0.33c-2.04,0-3.56-0.45-4.53-1.34
		c-2.11,1.09-4.03,1.63-5.77,1.63c-2.22,0-4.04-0.76-5.48-2.28c-1.44-1.52-2.15-3.41-2.15-5.68c0-2.28,0.72-4.23,2.17-5.85
		c1.45-1.62,3.27-2.43,5.46-2.43c1.26,0,2.6,0.26,4.01,0.78v-1.92l3.52-0.49l0.03,10.73c0,1.11,0.22,1.9,0.65,2.38
		C126.58,145.42,127.27,145.66,128.23,145.66z M117.99,128.15l-2.64,2.64l-2.9-2.87l2.87-2.84l2.67,2.61l2.67-2.61l2.9,2.84
		l-2.87,2.87L117.99,128.15z M117.92,146.15c1.44,0.02,2.85-0.29,4.24-0.95c-0.13-0.65-0.2-1.4-0.2-2.25v-5.12
		c-1.61-0.56-2.9-0.85-3.88-0.85c-1.3,0-2.38,0.45-3.21,1.35c-0.84,0.9-1.26,2.02-1.26,3.34c0,1.26,0.4,2.32,1.21,3.16
		C115.63,145.7,116.66,146.13,117.92,146.15z"/>
	<path class="st0" d="M134.56,145.66c0.22,0,0.33,0.1,0.33,0.29v3.13c0,0.22-0.11,0.33-0.33,0.33h-6.33c-0.22,0-0.33-0.11-0.33-0.33
		v-3.13c0-0.2,0.11-0.29,0.33-0.29H134.56z"/>
	<path class="st0" d="M140.88,145.66c0.22,0,0.33,0.1,0.33,0.29v3.13c0,0.22-0.11,0.33-0.33,0.33h-6.33c-0.22,0-0.33-0.11-0.33-0.33
		v-3.13c0-0.2,0.11-0.29,0.33-0.29H140.88z"/>
	<path class="st0" d="M147.21,145.66c0.22,0,0.33,0.1,0.33,0.29v3.13c0,0.22-0.11,0.33-0.33,0.33h-6.33c-0.22,0-0.33-0.11-0.33-0.33
		v-3.13c0-0.2,0.11-0.29,0.33-0.29H147.21z"/>
	<path class="st0" d="M156.15,133.27c2.17,0,3.98,0.72,5.43,2.17c1.45,1.45,2.17,3.26,2.17,5.43c0,2.65-0.82,4.74-2.46,6.26
		c-1.64,1.52-3.89,2.28-6.74,2.28h-7.34c-0.22,0-0.33-0.11-0.33-0.33v-3.13c0-0.2,0.11-0.29,0.33-0.29h2.38
		c-0.81-1.78-1.21-3.28-1.21-4.5c0-2.37,0.72-4.28,2.15-5.72C151.97,133.99,153.84,133.27,156.15,133.27z M154.71,145.66
		c1.7,0,3.03-0.42,4.01-1.26c0.98-0.84,1.47-1.99,1.47-3.47c0-1.22-0.4-2.22-1.19-3.02c-0.79-0.79-1.79-1.19-2.98-1.19
		c-1.15,0-2.14,0.42-2.95,1.27c-0.82,0.85-1.22,1.86-1.22,3.03c0,1.48,0.46,3.02,1.37,4.63H154.71z"/>
	<path class="st0" d="M174.94,149.41c-4.78,0-7.18-2.22-7.18-6.65l-0.03-16.67l3.56-0.49v16.11c0,2.63,1.21,3.95,3.62,3.95
		c0.22,0,0.33,0.1,0.33,0.29l0.03,3.13C175.26,149.31,175.15,149.41,174.94,149.41z"/>
	<path class="st0" d="M195.62,145.66c0.22,0,0.33,0.1,0.33,0.29v3.13c0,0.22-0.11,0.33-0.33,0.33h-1.17c-2.7,0-4.39-1.14-5.09-3.42
		c-2.54,1.2-4.95,2.07-7.21,2.61c-2.26,0.54-4.65,0.82-7.18,0.82c-0.24,0-0.36-0.11-0.36-0.33v-3.13c0-0.2,0.12-0.29,0.36-0.29
		c5.15,0,10.06-1.07,14.71-3.2c-2.63-2.07-4.58-3.44-5.84-4.13c-1.26-0.69-2.47-1.03-3.62-1.03c-0.63,0-1.69,0.16-3.16,0.49
		l-0.69-3.16c1.7-0.65,3.14-0.98,4.34-0.98c1.44,0,2.96,0.45,4.57,1.35c1.61,0.9,4.28,2.82,8.02,5.76l-0.62,3.56
		c-0.48,0.26-0.84,0.45-1.08,0.55c0.63,0.52,1.59,0.78,2.87,0.78H195.62z M188.44,128.96l-2.87,2.87l-2.94-2.87l2.87-2.84
		L188.44,128.96z"/>
	<path class="st0" d="M213.98,145.66c0.22,0,0.33,0.1,0.33,0.29v3.13c0,0.22-0.11,0.33-0.33,0.33c-3.11,0-6.09-0.43-8.94-1.3
		c-2.59,0.87-5.73,1.3-9.43,1.3c-0.22-0.02-0.33-0.13-0.33-0.33v-3.13c0-0.2,0.11-0.29,0.33-0.29c1.76,0,3.19-0.05,4.27-0.16
		c-1.59-1.46-2.38-3.21-2.38-5.25c0-1.98,0.7-3.64,2.1-4.97c1.4-1.34,3.16-2.01,5.27-2.01c2.13,0,3.89,0.67,5.27,2.02
		c1.38,1.35,2.07,2.99,2.07,4.93c0,2-0.79,3.74-2.38,5.22C210.97,145.59,212.35,145.66,213.98,145.66z M207.63,137.83
		c-0.77-0.74-1.72-1.11-2.85-1.11c-1.13,0-2.05,0.36-2.77,1.09c-0.72,0.73-1.08,1.67-1.08,2.82c0,1,0.35,1.91,1.06,2.74
		c0.71,0.83,1.65,1.42,2.82,1.79c1.2-0.44,2.16-1.07,2.89-1.89c0.73-0.83,1.09-1.71,1.09-2.64
		C208.79,139.51,208.41,138.57,207.63,137.83z M207.49,128.02l-2.87,2.87l-2.94-2.87l2.87-2.84L207.49,128.02z"/>
	<path class="st0" d="M224.91,145.96l0.03,3.13c0,0.22-0.11,0.33-0.33,0.33c-2.72,0-4.65-0.7-5.81-2.09
		c-1.52,1.39-3.13,2.09-4.83,2.09c-0.22,0-0.33-0.11-0.33-0.33v-3.13c0-0.2,0.11-0.29,0.33-0.29c1.37,0,2.57-0.39,3.59-1.17
		c-0.09-0.46-0.13-1.03-0.13-1.73l-0.03-16.67l3.56-0.49v16.11c0,2.63,1.21,3.95,3.62,3.95
		C224.8,145.66,224.91,145.76,224.91,145.96z"/>
	<path class="st0" d="M224.64,149.41c-0.22,0-0.33-0.11-0.33-0.33v-3.13c0-0.2,0.12-0.29,0.36-0.29c2.41,0,3.62-1.32,3.62-3.95
		l0.03-15.62l3.52-0.49v17.16C231.85,147.2,229.45,149.41,224.64,149.41z"/>
	<path class="st0" d="M252.43,156.43c-2.91,0-5.18-0.72-6.78-2.15c-1.61-1.44-2.41-3.57-2.41-6.39c0-2.26,0.48-4.85,1.44-7.76
		l2.87,0.78c-0.72,2.2-1.08,4.2-1.08,6c0.02,1.91,0.55,3.35,1.6,4.32c1.04,0.97,2.53,1.45,4.47,1.45c2,0,3.49-0.55,4.47-1.66
		c0.98-1.11,1.47-2.83,1.47-5.15v-12.26l3.52-0.49v13.18c0,3.15-0.79,5.63-2.38,7.44C258.02,155.52,255.63,156.43,252.43,156.43z
		 M252.34,136.33l-2.94-2.87l2.87-2.84l2.94,2.84L252.34,136.33z"/>
	<path class="st0" d="M266.75,149.41v-23.32l3.56-0.49v23.81H266.75z"/>
	<path class="st0" d="M290.73,145.66c0.22,0,0.33,0.1,0.33,0.29v3.13c0,0.22-0.11,0.33-0.33,0.33h-1.83
		c-0.39,4.68-4.58,7.01-12.56,7.01l-0.39-2.97c2.96,0,5.2-0.32,6.74-0.96c1.53-0.64,2.42-1.67,2.66-3.08h-3.52
		c-2.3,0-4.16-0.72-5.56-2.15c-1.4-1.44-2.1-3.35-2.1-5.74c0-2.35,0.73-4.28,2.19-5.81c1.46-1.52,3.29-2.28,5.51-2.28
		c2.09,0,3.79,0.7,5.1,2.09s1.97,3.23,1.97,5.51v4.63H290.73z M277.39,141.39c0,1.44,0.43,2.53,1.3,3.29
		c0.87,0.76,2.04,1.14,3.52,1.14c0.35,0,0.93-0.02,1.75-0.05c0.82-0.03,1.3-0.05,1.45-0.05v-4.44c0-1.28-0.36-2.31-1.08-3.08
		c-0.72-0.77-1.65-1.16-2.8-1.16c-1.17,0-2.16,0.4-2.95,1.21C277.78,139.06,277.39,140.11,277.39,141.39z"/>
	<path class="st0" d="M297.06,145.66c0.22,0,0.33,0.1,0.33,0.29v3.13c0,0.22-0.11,0.33-0.33,0.33h-6.33c-0.22,0-0.33-0.11-0.33-0.33
		v-3.13c0-0.2,0.11-0.29,0.33-0.29H297.06z"/>
	<path class="st0" d="M303.38,145.66c0.22,0,0.33,0.1,0.33,0.29v3.13c0,0.22-0.11,0.33-0.33,0.33h-6.33c-0.22,0-0.33-0.11-0.33-0.33
		v-3.13c0-0.2,0.11-0.29,0.33-0.29H303.38z"/>
	<path class="st0" d="M309.71,145.66c0.22,0,0.33,0.1,0.33,0.29v3.13c0,0.22-0.11,0.33-0.33,0.33h-6.33c-0.22,0-0.33-0.11-0.33-0.33
		v-3.13c0-0.2,0.11-0.29,0.33-0.29H309.71z"/>
	<path class="st0" d="M316.04,145.66c0.22,0,0.33,0.1,0.33,0.29v3.13c0,0.22-0.11,0.33-0.33,0.33h-6.33c-0.22,0-0.33-0.11-0.33-0.33
		v-3.13c0-0.2,0.11-0.29,0.33-0.29H316.04z"/>
	<path class="st0" d="M322.36,145.66c0.22,0,0.33,0.1,0.33,0.29v3.13c0,0.22-0.11,0.33-0.33,0.33h-6.33c-0.22,0-0.33-0.11-0.33-0.33
		v-3.13c0-0.2,0.11-0.29,0.33-0.29H322.36z"/>
	<path class="st0" d="M328.69,145.66c0.22,0,0.33,0.1,0.33,0.29v3.13c0,0.22-0.11,0.33-0.33,0.33h-6.33c-0.22,0-0.33-0.11-0.33-0.33
		v-3.13c0-0.2,0.11-0.29,0.33-0.29H328.69z"/>
	<path class="st0" d="M335.02,145.66c0.22,0,0.33,0.1,0.33,0.29v3.13c0,0.22-0.11,0.33-0.33,0.33h-6.33c-0.22,0-0.33-0.11-0.33-0.33
		v-3.13c0-0.2,0.11-0.29,0.33-0.29H335.02z"/>
	<path class="st0" d="M341.35,145.66c0.22,0,0.33,0.1,0.33,0.29v3.13c0,0.22-0.11,0.33-0.33,0.33h-6.33c-0.22,0-0.33-0.11-0.33-0.33
		v-3.13c0-0.2,0.11-0.29,0.33-0.29H341.35z"/>
	<path class="st0" d="M347.67,145.66c0.22,0,0.33,0.1,0.33,0.29v3.13c0,0.22-0.11,0.33-0.33,0.33h-6.33c-0.22,0-0.33-0.11-0.33-0.33
		v-3.13c0-0.2,0.11-0.29,0.33-0.29H347.67z"/>
	<path class="st0" d="M377.88,145.66c0.22,0,0.33,0.1,0.33,0.29v3.13c0,0.22-0.11,0.33-0.33,0.33c-1.94,0-3.67-0.74-5.22-2.22
		c-1.24,1.48-3.21,2.22-5.9,2.22H352.4h-4.73c-0.22,0-0.33-0.11-0.33-0.33v-3.13c0.04-0.2,0.15-0.29,0.33-0.29h3v-19.57l3.56-0.49
		v11.06c3.22-1.44,5.71-2.42,7.49-2.97s3.47-0.82,5.1-0.82c2.11,0,3.84,0.67,5.2,2.02c1.36,1.35,2.03,3.09,2.01,5.22l-0.03,2.84
		c0,0.52-0.04,0.99-0.13,1.4C375.13,145.23,376.46,145.66,377.88,145.66z M370.47,142.21v-1.66c0-1.2-0.41-2.16-1.24-2.9
		c-0.83-0.74-1.89-1.11-3.2-1.11c-1.46,0-2.89,0.2-4.31,0.59c-1.41,0.39-3.91,1.27-7.5,2.64v5.9h12.56c1.17,0,2.08-0.3,2.72-0.9
		C370.15,144.17,370.47,143.31,370.47,142.21z"/>
	<path class="st0" d="M377.88,149.41c-0.22,0-0.33-0.11-0.33-0.33l0.03-3.13c0-0.2,0.11-0.29,0.33-0.29c2.44,0,3.65-1.27,3.65-3.82
		l-0.03-8.25l3.56-0.49v9.85c0,2.09-0.6,3.69-1.81,4.79S380.27,149.41,377.88,149.41z M383.23,130.66l-2.94-2.87l2.87-2.84
		l2.94,2.84L383.23,130.66z"/>
</g>
<path class="st1" d="M514.21,41.35"/>
<path class="st1" d="M483.22,123.28"/>
<path class="st1" d="M483.22,123.28"/>
<path class="st1" d="M489.59,134.48"/>
</svg>
