<?xml version="1.0" encoding="utf-8"?>
<!-- Generator: Adobe Illustrator 24.3.0, SVG Export Plug-In . SVG Version: 6.00 Build 0)  -->
<svg version="1.1" id="Layer_1" xmlns="http://www.w3.org/2000/svg" xmlns:xlink="http://www.w3.org/1999/xlink" x="0px" y="0px"
	 viewBox="0 0 387.39 121.59" style="enable-background:new 0 0 387.39 121.59;" xml:space="preserve">
<style type="text/css">
	.st0{fill:#264726;}
	.st1{display:none;fill-rule:evenodd;clip-rule:evenodd;fill:#26301D;}
	.st2{fill:#FFDFA7;}
	.st3{opacity:0.15;clip-path:url(#SVGID_2_);}
	.st4{opacity:0.15;clip-path:url(#SVGID_4_);}
	.st5{fill:#264726;stroke:#FFDFA7;stroke-width:0.25;stroke-miterlimit:10;}
	.st6{opacity:0.13;clip-path:url(#SVGID_6_);}
	.st7{opacity:0.13;clip-path:url(#SVGID_8_);}
	.st8{opacity:0.13;clip-path:url(#SVGID_10_);}
</style>
<g id="BG">
</g>
<path class="st2" d="M23.05,51.04v6.95c0,0.29-0.19,0.53-0.48,0.53c-2.03,0-3.76-0.67-5.02-1.93v0.82c0,8.34-4.49,11.48-13.7,11.48
	l-0.53-6.13c3.91,0,6.75-1.54,6.75-5.69l-0.05-22.09l7.52-0.92v12.97c0.39,2.27,2.46,3.52,5.02,3.52
	C22.86,50.56,23.05,50.75,23.05,51.04z"/>
<path class="st2" d="M32.4,51.04v6.95c0,0.29-0.19,0.53-0.48,0.53h-9.36c-0.29,0-0.48-0.24-0.48-0.53v-6.95
	c0-0.29,0.19-0.48,0.48-0.48h9.36C32.21,50.56,32.4,50.75,32.4,51.04z"/>
<path class="st2" d="M41.76,51.04v6.95c0,0.29-0.19,0.53-0.48,0.53h-9.36c-0.29,0-0.48-0.24-0.48-0.53v-6.95
	c0-0.29,0.19-0.48,0.48-0.48h9.36C41.57,50.56,41.76,50.75,41.76,51.04z"/>
<path class="st2" d="M51.12,51.04v6.95c0,0.29-0.19,0.53-0.48,0.53h-9.36c-0.29,0-0.48-0.24-0.48-0.53v-6.95
	c0-0.29,0.19-0.48,0.48-0.48h9.36C50.92,50.56,51.12,50.75,51.12,51.04z"/>
<path class="st2" d="M60.47,51.04v6.95c0,0.29-0.19,0.53-0.48,0.53h-9.36c-0.29,0-0.48-0.24-0.48-0.53v-6.95
	c0-0.29,0.19-0.48,0.48-0.48h9.36C60.28,50.56,60.47,50.75,60.47,51.04z"/>
<path class="st2" d="M69.83,51.04v6.95c0,0.29-0.19,0.53-0.48,0.53h-9.36c-0.29,0-0.48-0.24-0.48-0.53v-6.95
	c0-0.29,0.19-0.48,0.48-0.48h9.36C69.63,50.56,69.83,50.75,69.83,51.04z"/>
<path class="st2" d="M79.18,51.04v6.95c0,0.29-0.19,0.53-0.48,0.53h-9.36c-0.29,0-0.48-0.24-0.48-0.53v-6.95
	c0-0.29,0.19-0.48,0.48-0.48h9.36C78.99,50.56,79.18,50.75,79.18,51.04z"/>
<path class="st2" d="M97.85,51.04v6.95c0,0.29-0.19,0.53-0.48,0.53c-2.56,0-5.31-1.3-7.57-3.62c-2.22,2.41-6.03,3.62-11.09,3.62
	c-0.29,0-0.48-0.24-0.48-0.53l0.1-6.95c0-0.29,0.19-0.48,0.48-0.48c3.76,0,5.79-1.45,5.79-4.92l-0.05-5.79l7.52-0.87v9.41v0.63
	c1.59,1.01,3.42,1.54,5.31,1.54C97.66,50.56,97.85,50.75,97.85,51.04z M91.48,60.98l5.06,4.97l-4.97,4.97l-3.52-3.42l-3.42,3.42
	l-5.06-4.97l4.97-4.97l3.52,3.42L91.48,60.98z"/>
<path class="st2" d="M105.47,34.98l7.52-0.92v14.33c0,6.66-3.81,10.13-11.58,10.13h-4.05c-0.29,0-0.48-0.24-0.48-0.53l0.1-6.95
	c0-0.29,0.19-0.48,0.48-0.48h4.05c2.7,0,4-1.5,4-4.92L105.47,34.98z M105.37,31.36l-5.06-4.97l4.97-4.97l3.81,3.71l3.76-3.71
	l5.06,4.97l-4.97,4.97l-3.81-3.71L105.37,31.36z M109.13,22.78l-3.18-3.23l3.13-3.23l3.28,3.23L109.13,22.78z"/>
<path class="st2" d="M130.6,22.87l-0.87,4.05h-11.48v-4.05h2.03c-0.34-0.72-0.53-1.5-0.53-2.36c0-2.51,2.03-4.39,4.77-4.39
	c1.59,0,3.28,0.48,4.34,0.96v3.67c-1.25-0.48-2.31-0.72-3.09-0.72c-1.06,0-1.83,0.53-1.83,1.35c0,0.58,0.19,1.06,0.53,1.5H130.6z
	 M120.52,30.06l7.52-0.87v29.33h-7.52V30.06z"/>
<path class="st2" d="M171.98,22.92v29.33v1.79c0,9.26-5.16,14.86-14.81,14.86c-9.41,0-14.42-4.24-14.42-12.88
	c0-3.28,0.68-6.99,2.07-11.24l6.08,1.64c-0.87,2.75-1.35,5.06-1.35,7.38c0.05,4.77,2.6,7.14,7.62,7.14c4.87,0,7.33-2.56,7.28-7.96
	V34.98V23.79L171.98,22.92z"/>
<path class="st2" d="M193.49,51.04v6.95c0,0.29-0.19,0.53-0.48,0.53c-2.03,0-3.76-0.67-5.02-1.93v0.82c0,8.34-4.49,11.48-13.7,11.48
	l-0.53-6.13c3.91,0,6.75-1.54,6.75-5.69l-0.05-22.09l7.52-0.92v12.97c0.39,2.27,2.46,3.52,5.02,3.52
	C193.3,50.56,193.49,50.75,193.49,51.04z M184.23,31.8l-5.06-4.97l5.02-4.97l5.02,4.97L184.23,31.8z"/>
<path class="st2" d="M202.84,51.04v6.95c0,0.29-0.19,0.53-0.48,0.53H193c-0.29,0-0.48-0.24-0.48-0.53v-6.95
	c0-0.29,0.19-0.48,0.48-0.48h9.36C202.65,50.56,202.84,50.75,202.84,51.04z"/>
<path class="st2" d="M212.2,51.04v6.95c0,0.29-0.19,0.53-0.48,0.53h-9.36c-0.29,0-0.48-0.24-0.48-0.53v-6.95
	c0-0.29,0.19-0.48,0.48-0.48h9.36C212.01,50.56,212.2,50.75,212.2,51.04z"/>
<path class="st2" d="M221.56,51.04v6.95c0,0.29-0.19,0.53-0.48,0.53h-9.36c-0.29,0-0.48-0.24-0.48-0.53v-6.95
	c0-0.29,0.19-0.48,0.48-0.48h9.36C221.36,50.56,221.56,50.75,221.56,51.04z"/>
<path class="st2" d="M230.91,51.04v6.95c0,0.29-0.19,0.53-0.48,0.53h-9.36c-0.29,0-0.48-0.24-0.48-0.53v-6.95
	c0-0.29,0.19-0.48,0.48-0.48h9.36C230.72,50.56,230.91,50.75,230.91,51.04z"/>
<path class="st2" d="M240.27,51.04v6.95c0,0.29-0.19,0.53-0.48,0.53h-9.36c-0.29,0-0.48-0.24-0.48-0.53v-6.95
	c0-0.29,0.19-0.48,0.48-0.48h9.36C240.08,50.56,240.27,50.75,240.27,51.04z"/>
<path class="st2" d="M249.63,51.04v6.95c0,0.29-0.19,0.53-0.48,0.53h-9.36c-0.29,0-0.48-0.24-0.48-0.53v-6.95
	c0-0.29,0.19-0.48,0.48-0.48h9.36C249.43,50.56,249.63,50.75,249.63,51.04z"/>
<path class="st2" d="M258.98,51.04v6.95c0,0.29-0.19,0.53-0.48,0.53h-9.36c-0.29,0-0.48-0.24-0.48-0.53v-6.95
	c0-0.29,0.19-0.48,0.48-0.48h9.36C258.79,50.56,258.98,50.75,258.98,51.04z"/>
<path class="st2" d="M258.01,57.99l0.1-6.95c0-0.29,0.19-0.48,0.48-0.48c2.7,0,4-1.5,4-4.92l-0.05-10.66l7.52-0.92v14.33
	c0,6.66-3.81,10.13-11.58,10.13C258.21,58.52,258.01,58.28,258.01,57.99z M261.1,25.57l5.02-4.97l5.02,4.97l-4.97,4.97L261.1,25.57z
	"/>
<path class="st2" d="M23.97,107.43c0.24,0,0.36,0.11,0.36,0.32v2.54c0,0.24-0.12,0.36-0.36,0.36c-2.19,0-3.81-0.51-4.86-1.54
	c-2.41,1.24-4.56,1.86-6.46,1.86c-2.41,0-4.38-0.82-5.91-2.46c-1.54-1.64-2.3-3.68-2.3-6.11c0-2.48,0.77-4.58,2.32-6.32
	c1.55-1.74,3.51-2.61,5.89-2.61c1.45,0,3.05,0.33,4.79,1v-2.21l3-0.5l0.04,11.68c0,1.43,0.27,2.45,0.82,3.07
	C21.84,107.12,22.73,107.43,23.97,107.43z M12.65,107.89c1.6,0.02,3.31-0.38,5.14-1.21c-0.24-0.81-0.36-1.8-0.36-2.96V97.5
	c-1.93-0.64-3.49-0.96-4.68-0.96c-1.6,0-2.9,0.56-3.91,1.68c-1.01,1.12-1.52,2.5-1.52,4.14c0,1.57,0.49,2.88,1.48,3.93
	C9.8,107.33,11.08,107.87,12.65,107.89z"/>
<path class="st2" d="M30.9,107.43c0.24,0,0.36,0.11,0.36,0.32v2.54c0,0.24-0.12,0.36-0.36,0.36h-6.93c-0.24,0-0.36-0.12-0.36-0.36
	v-2.54c0-0.21,0.12-0.32,0.36-0.32H30.9z"/>
<path class="st2" d="M37.83,107.43c0.24,0,0.36,0.11,0.36,0.32v2.54c0,0.24-0.12,0.36-0.36,0.36H30.9c-0.24,0-0.36-0.12-0.36-0.36
	v-2.54c0-0.21,0.12-0.32,0.36-0.32H37.83z"/>
<path class="st2" d="M47.58,93.32c2.29,0,4.2,0.78,5.75,2.34c1.55,1.56,2.32,3.51,2.32,5.84c0,2.86-0.89,5.1-2.66,6.71
	c-1.77,1.62-4.22,2.43-7.34,2.43h-7.82c-0.24,0-0.36-0.12-0.36-0.36v-2.54c0-0.21,0.12-0.32,0.36-0.32h3.07
	c-1.07-2.21-1.61-4.14-1.61-5.79c0-2.4,0.78-4.39,2.34-5.96C43.19,94.11,45.17,93.32,47.58,93.32z M45.9,107.43
	c2.05,0,3.68-0.51,4.89-1.54c1.21-1.02,1.82-2.45,1.82-4.29c0-1.52-0.49-2.78-1.48-3.77c-0.99-0.99-2.23-1.48-3.73-1.48
	c-1.43,0-2.64,0.53-3.64,1.59s-1.5,2.3-1.5,3.73c0,1.71,0.59,3.63,1.79,5.75H45.9z"/>
<path class="st2" d="M66.97,93.46c2.21,0,4.01,0.73,5.39,2.2c1.38,1.46,2.07,3.4,2.07,5.8v8.36c0,5.67-4.44,8.5-13.32,8.5
	l-0.36-2.61c3.6,0,6.27-0.48,8.04-1.45c1.76-0.96,2.64-2.49,2.64-4.59v-0.07c-1.52,0.69-3,1.04-4.43,1.04c-2.48,0-4.48-0.77-6-2.3
	s-2.29-3.6-2.29-6.2c0-2.55,0.78-4.63,2.34-6.25C62.62,94.27,64.59,93.46,66.97,93.46z M67.4,107.54c1.4,0,2.75-0.23,4.04-0.68
	v-5.14c0-1.52-0.44-2.76-1.32-3.71c-0.88-0.95-2.02-1.43-3.43-1.43c-1.48,0-2.7,0.5-3.68,1.5s-1.46,2.31-1.46,3.93
	c0,1.83,0.52,3.23,1.57,4.18C64.16,107.13,65.59,107.58,67.4,107.54z"/>
<path class="st2" d="M97.94,107.43c0.24,0,0.36,0.11,0.36,0.32v2.54c0,0.24-0.12,0.36-0.36,0.36c-2.1,0-4-0.8-5.71-2.39
	c-1.31,1.59-3.38,2.39-6.21,2.39h-8.36l-0.61-3.21h9c1.45,0,2.57-0.36,3.34-1.07c0.77-0.71,1.16-1.73,1.16-3.04l-0.04-2.07
	c-0.02-1.45-0.54-2.63-1.55-3.54c-1.01-0.9-2.3-1.36-3.88-1.36h-2.11v-3.14h2.75c2.29,0,4.16,0.7,5.61,2.11
	c1.45,1.41,2.19,3.25,2.21,5.54l0.04,2.93c0,0.64-0.08,1.33-0.25,2.07C94.81,106.91,96.34,107.43,97.94,107.43z"/>
<path class="st2" d="M120.62,107.43c0.24,0,0.36,0.11,0.36,0.32v2.54c0,0.24-0.12,0.36-0.36,0.36h-1.64c-1.5,0-2.71-0.33-3.64-1
	c-0.93-0.67-1.55-1.59-1.86-2.79c-5.48,2.52-10.64,3.79-15.5,3.79c-0.26,0-0.39-0.12-0.39-0.36v-2.54c0-0.21,0.13-0.32,0.39-0.32
	c5.5,0,11.08-1.38,16.75-4.14c-3.07-2.57-5.34-4.27-6.8-5.11c-1.46-0.83-2.85-1.25-4.16-1.25c-0.55,0-1.71,0.19-3.5,0.57l-0.61-2.71
	c1.76-0.67,3.29-1,4.57-1c1.55,0,3.18,0.51,4.91,1.54c1.73,1.02,4.62,3.23,8.7,6.61l-0.46,2.96c-0.67,0.41-1.35,0.76-2.04,1.07
	c0.59,0.98,1.82,1.46,3.68,1.46H120.62z M110.83,88.39L108.22,91l-2.64-2.61l2.57-2.57L110.83,88.39z"/>
<path class="st2" d="M140.76,107.43c0.24,0,0.36,0.11,0.36,0.32v2.54c0,0.24-0.12,0.36-0.36,0.36h-8.64c-2.36,0-4.33-0.58-5.93-1.75
	c-1.86,1.17-3.71,1.75-5.57,1.75c-0.24,0-0.36-0.12-0.36-0.36v-2.54c0-0.21,0.12-0.32,0.36-0.32c1.24,0,2.42-0.26,3.54-0.79
	c-0.86-1.41-1.29-3.08-1.29-5.04c0-2.38,0.76-4.36,2.29-5.93c1.52-1.57,3.46-2.36,5.82-2.36c2.21,0,4.11,0.79,5.68,2.38
	c1.57,1.58,2.36,3.45,2.36,5.59c0,1.86-0.42,3.91-1.25,6.14H140.76z M131.87,107.43h2.96c0.83-2.33,1.25-4.21,1.25-5.64
	c0-1.45-0.47-2.73-1.41-3.82c-0.94-1.09-2.11-1.64-3.52-1.64c-1.6,0-2.87,0.49-3.82,1.48c-0.95,0.99-1.43,2.29-1.43,3.91
	c0,1.71,0.54,3.1,1.61,4.14C128.58,106.91,130.03,107.43,131.87,107.43z"/>
<path class="st2" d="M140.76,110.64c-0.24,0-0.36-0.12-0.36-0.36v-2.54c0-0.21,0.13-0.32,0.39-0.32c2.98,0,4.46-1.55,4.46-4.64
	l0.04-17.75l3-0.46v18.93C148.3,108.26,145.78,110.64,140.76,110.64z"/>
<path class="st2" d="M154.48,110.64V85.03l3.04-0.46v26.07H154.48z"/>
<path class="st2" d="M196.47,107.43h-2.1v-5.71c0-2.38-0.69-4.31-2.07-5.77c-1.38-1.47-3.18-2.22-5.4-2.27
	c-2.35-0.02-4.29,0.78-5.8,2.41c-1.51,1.63-2.27,3.75-2.27,6.34c0,2.5,0.74,4.5,2.22,5.98c1.47,1.49,3.42,2.24,5.85,2.24h4.36
	c-0.41,1.57-1.39,2.77-2.95,3.62c-1.56,0.84-3.6,1.27-6.12,1.27c-2.76,0-4.93-0.62-6.48-1.86c-1.56-1.24-2.36-3.03-2.38-5.39
	c0-2.31,0.42-4.69,1.25-7.15l-2.46-0.67c-1.05,3.19-1.57,6.06-1.57,8.6c0,2.98,1,5.27,3,6.86c2,1.6,4.64,2.39,7.92,2.39
	c7.67,0,11.92-2.56,12.75-7.67h2.25c0.24,0,0.36-0.12,0.36-0.36v-2.54C196.83,107.54,196.71,107.43,196.47,107.43z M187.3,107.54
	c-1.74,0-3.12-0.45-4.15-1.36c-1.02-0.9-1.53-2.2-1.53-3.89s0.46-3.04,1.39-4.04s2.13-1.48,3.61-1.43c1.4,0.03,2.54,0.51,3.41,1.45
	c0.87,0.94,1.3,2.17,1.3,3.7l0.04,5.5C189.41,107.51,188.06,107.54,187.3,107.54z"/>
<polygon class="st2" points="186.59,87.75 183.98,90.32 181.37,87.75 183.98,85.18 "/>
<polygon class="st2" points="192.26,87.75 189.66,90.32 187.01,87.75 189.66,85.18 "/>
<polygon class="st2" points="12.95,87.75 10.35,90.32 7.74,87.75 10.35,85.18 "/>
<polygon class="st2" points="18.63,87.75 16.02,90.32 13.38,87.75 16.02,85.18 "/>
<path class="st2" d="M216.59,107.43c0.24,0,0.36,0.11,0.36,0.32v2.54c0,0.24-0.12,0.36-0.36,0.36c-3.52,0-6.8-0.44-9.82-1.32
	c-2.71,0.88-6.14,1.32-10.29,1.32c-0.24-0.02-0.36-0.14-0.36-0.36v-2.54c0-0.21,0.12-0.32,0.36-0.32c2.07,0,3.93-0.07,5.57-0.21
	c-2.19-1.64-3.29-3.75-3.29-6.32c0-2.17,0.75-3.97,2.25-5.41s3.37-2.16,5.61-2.16c2.29,0,4.17,0.73,5.64,2.2
	c1.48,1.46,2.21,3.26,2.21,5.38c0,2.55-1.1,4.63-3.29,6.25C212.6,107.33,214.39,107.43,216.59,107.43z M206.34,87.75l-2.61,2.57
	l-2.61-2.57l2.61-2.57L206.34,87.75z M206.51,96.32c-1.41,0-2.55,0.46-3.45,1.38c-0.89,0.92-1.34,2.09-1.34,3.52
	c0,1.26,0.44,2.41,1.32,3.43c0.88,1.02,2.06,1.75,3.54,2.18c1.52-0.5,2.73-1.25,3.63-2.25c0.89-1,1.34-2.12,1.34-3.36
	c0-1.43-0.48-2.6-1.45-3.52C209.14,96.78,207.94,96.32,206.51,96.32z M212.01,87.75l-2.61,2.57l-2.64-2.57l2.64-2.57L212.01,87.75z"
	/>
<path class="st2" d="M250.12,107.43c0.24,0,0.36,0.11,0.36,0.32v2.54c0,0.24-0.12,0.36-0.36,0.36c-1.98,0-3.82-0.73-5.54-2.18
	c-1.21,1.43-3.08,2.14-5.61,2.14c-1.91,0-3.89-0.63-5.96-1.89c-1.26,1.26-3.07,1.89-5.43,1.89c-1.71,0-3.49-0.62-5.32-1.86
	c-1.31,1.26-3.2,1.89-5.68,1.89c-0.24,0-0.36-0.12-0.36-0.36v-2.54c0-0.21,0.12-0.32,0.36-0.32c3,0,4.5-1.49,4.5-4.46l-0.04-5.79
	l3.04-0.46v7.07c0,1-0.14,1.92-0.43,2.75c1.38,0.57,2.62,0.86,3.71,0.86c3,0,4.5-1.49,4.5-4.46l-0.04-5.79l3.04-0.46v7.07
	c0,1.05-0.16,1.96-0.46,2.75c1.48,0.6,2.86,0.89,4.14,0.89c1.45,0,2.57-0.38,3.34-1.12s1.16-1.86,1.16-3.34v-9.57l3-0.5v10.89
	c0,0.79-0.1,1.56-0.29,2.32C247.15,106.98,248.6,107.43,250.12,107.43z M232.77,88.93l-2.57,2.61l-2.64-2.61l2.61-2.57L232.77,88.93
	z M235.02,84.57l-1.86,1.86l-1.89-1.86l1.86-1.89L235.02,84.57z M236.09,91.53l-2.64-2.61l2.64-2.57l2.61,2.57L236.09,91.53z"/>
<path class="st2" d="M261.7,107.43c0.24,0,0.36,0.11,0.36,0.32v2.54c0,0.24-0.12,0.36-0.36,0.36c-2.88,0-4.93-0.77-6.14-2.32
	c-1.64,1.55-3.45,2.32-5.43,2.32c-0.24,0-0.36-0.12-0.36-0.36v-2.54c0-0.21,0.12-0.32,0.36-0.32c1.71,0,3.15-0.5,4.32-1.5
	c-0.17-0.67-0.25-1.48-0.25-2.43V85.03l3.04-0.46v18.22C257.23,105.88,258.72,107.43,261.7,107.43z"/>
<path class="st2" d="M261.73,110.64c-0.24,0-0.36-0.12-0.36-0.36v-2.54c0-0.21,0.13-0.32,0.39-0.32c2.98,0,4.46-1.55,4.46-4.64
	l0.04-17.75l3-0.46v18.93C269.27,108.26,266.75,110.64,261.73,110.64z"/>
<g>
	<g>
		<path class="st2" d="M342.9,93.15l-7.13-11.56c2.42-3.98,4.12-6.62,6.56-10.63c2.94,4.86,4.24,6.85,7.16,11.69"/>
	</g>
	<g>
		<path class="st2" d="M345.66,98.33l6.7-10.93c5.88,9.74,7.8,12.85,13.71,22.65h-77.2c0.28-0.49,0.49-0.87,0.71-1.25
			c7.33-12.08,14.66-24.15,21.98-36.24c6.23-10.27,12.45-20.53,18.64-30.82c0.42-0.71,0.86-0.98,1.72-0.97
			c3.75,0.05,7.5,0.03,11.25,0.01c0.65-0.01,1.04,0.17,1.38,0.74c6.79,11.25,13.6,22.49,20.41,33.73c1.75,2.88,3.49,5.77,5.23,8.65
			c0.15,0.26,0.56,0.87,0.77,1.19c0-0.63,0-1.2,0.01-1.57c0.01-4.7-0.01-9.4-0.01-14.11c-0.01-3.76,0-7.52-0.02-11.29
			c0-0.61,0.09-1.17,0.43-1.72c2.03-3.33,4.04-6.67,6.05-10.02c0.07-0.12,0.17-0.22,0.35-0.47c2.26,3.72,4.45,7.33,6.67,10.99
			c-0.55,0.91-1.07,1.83-1.65,2.72c-0.36,0.57-0.52,1.14-0.52,1.8v48.67c-2.88,0.01-5.77,0.01-8.66,0.02
			c-0.92,0.01-1.28-0.42-1.67-1.06c-6.56-10.87-13.12-21.72-19.69-32.58c-4.66-7.72-9.32-15.43-13.98-23.15
			c-0.21-0.35-0.45-0.69-0.78-1.19c-8.99,14.86-18.89,31.3-27.9,46.19h35.78H345.66z"/>
	</g>
	<g>
		<path class="st2" d="M354.93,50.33c1.82-3.02,3.61-5.99,5.43-8.95c0.34-0.56,0.44-0.99,0.06-1.6c-2.69-4.37-5.33-8.77-8-13.16
			c-0.16-0.26-0.35-0.5-0.66-0.92c-1.91,3.13-3.74,6.15-5.56,9.13c-4.63,0-9.18,0-13.94,0c6.52-10.8,12.97-21.49,19.5-32.3
			c0.26,0.37,0.44,0.61,0.59,0.87c7.33,12.13,14.65,24.27,21.99,36.38c0.43,0.71,0.41,1.21-0.01,1.91
			c-2.79,4.54-5.52,9.12-8.3,13.67c-0.36,0.6-0.53,1.19-0.53,1.88c0.03,3.02,0.01,6.04,0.01,9.06c0,0.39,0,0.77,0,1.21
			C364.81,66.9,356.52,53.44,354.93,50.33z"/>
	</g>
</g>
</svg>
